<svg width="500" height="500" viewBox="0 0 500 500" fill="none" xmlns="http://www.w3.org/2000/svg">
<rect width="500" height="500" fill="black"/>
<g clip-path="url(#clip0_64_283)">
<rect width="414" height="266" transform="translate(43 117)" fill="black"/>
<path d="M434.594 139.314V360.686H65.313V139.314H434.594ZM457 117H43V383H457V117Z" fill="white"/>
<path d="M85.8599 231.172L93.1116 214.902C99.9915 219.458 109.846 222.619 118.865 222.619C127.883 222.619 131.602 220.016 131.602 216.297C131.602 203.931 87.2544 212.949 87.2544 183.941C87.2544 169.995 98.5969 158.652 121.84 158.652C131.973 158.652 142.479 160.977 150.196 165.439L143.409 181.803C135.971 177.805 128.627 175.76 121.747 175.76C112.45 175.76 109.196 178.921 109.196 182.826C109.196 194.726 153.45 185.801 153.45 214.623C153.45 228.197 142.107 239.819 118.865 239.819C106.035 239.819 93.2975 236.379 85.9528 231.265L85.8599 231.172Z" fill="white"/>
<path d="M193.613 209.881L185.339 218.714V238.239H163.491V160.14H185.339V192.588L215.554 160.14H239.82L207.931 194.727L241.493 238.239H215.833L193.52 209.881H193.613Z" fill="white"/>
<path d="M240.563 199.189C240.563 175.76 258.972 158.56 283.981 158.56C308.99 158.56 327.398 175.76 327.398 199.189C327.398 222.619 308.99 239.819 283.981 239.819C258.972 239.819 240.563 222.619 240.563 199.189ZM304.992 199.189C304.992 185.708 295.695 176.876 283.888 176.876C272.081 176.876 262.784 185.708 262.784 199.189C262.784 212.671 272.081 221.503 283.888 221.503C295.695 221.503 304.992 212.671 304.992 199.189Z" fill="white"/>
<path d="M338.276 203.466V160.233H360.31V202.815C360.31 216.204 365.888 221.596 375.186 221.596C384.483 221.596 389.875 216.204 389.875 202.815V160.233H411.63V203.466C411.63 226.803 398.056 239.819 374.907 239.819C351.757 239.819 338.183 226.803 338.183 203.466H338.276Z" fill="white"/>
<path d="M153.914 318.941V335.955H91.252V257.856H152.427V274.871H113.1V288.073H147.778V304.53H113.1V318.848H153.914V318.941Z" fill="white"/>
<path d="M197.611 315.314H185.525V336.048H163.397V257.949H199.098C220.389 257.949 233.777 269.013 233.777 286.864C233.777 298.393 228.198 306.854 218.529 311.503L235.357 336.048H211.742L197.611 315.314ZM197.797 275.335H185.525V298.207H197.797C206.908 298.207 211.556 293.93 211.556 286.864C211.556 279.798 207.001 275.335 197.797 275.335Z" fill="white"/>
<path d="M282.122 315.314H270.035V336.048H247.908V257.949H283.609C304.899 257.949 318.287 269.013 318.287 286.864C318.287 298.393 312.709 306.854 303.04 311.503L319.868 336.048H296.253L282.122 315.314ZM282.307 275.335H270.035V298.207H282.307C291.419 298.207 296.067 293.93 296.067 286.864C296.067 279.798 291.512 275.335 282.307 275.335Z" fill="white"/>
<path d="M411.631 318.848H338.276V335.955H411.631V318.848Z" fill="white"/>
</g>
<defs>
<clipPath id="clip0_64_283">
<rect width="414" height="266" fill="white" transform="translate(43 117)"/>
</clipPath>
</defs>
</svg>
