<svg width="414" height="266" viewBox="0 0 414 266" fill="none" xmlns="http://www.w3.org/2000/svg">
<g clip-path="url(#clip0_93_21)">
<rect width="414" height="266" fill="white"/>
<g clip-path="url(#clip1_93_21)">
<rect width="414" height="266" fill="white"/>
<path d="M391.594 22.3139V243.686H22.313V22.3139H391.594ZM414 0H0V266H414V0Z" fill="#1E1E1E"/>
<path d="M42.8596 114.172L50.1114 97.9019C56.9912 102.458 66.8461 105.619 75.8643 105.619C84.8825 105.619 88.6014 103.016 88.6014 99.2965C88.6014 86.9309 44.2542 95.9494 44.2542 66.9414C44.2542 52.9952 55.5966 41.6523 78.8394 41.6523C88.9732 41.6523 99.479 43.9767 107.196 48.4395L100.409 64.803C92.971 60.8051 85.6263 58.7596 78.7464 58.7596C69.4493 58.7596 66.1953 61.9208 66.1953 65.8257C66.1953 77.7264 110.45 68.8009 110.45 97.623C110.45 111.197 99.1071 122.819 75.8643 122.819C63.0343 122.819 50.2973 119.379 42.9526 114.265L42.8596 114.172Z" fill="#1E1E1E"/>
<path d="M150.613 92.8815L142.339 101.714V121.239H120.49V43.1401H142.339V75.5882L172.554 43.1401H196.82L164.931 77.7266L198.493 121.239H172.833L150.52 92.8815H150.613Z" fill="#1E1E1E"/>
<path d="M197.563 82.1894C197.563 58.7599 215.972 41.5596 240.981 41.5596C265.99 41.5596 284.398 58.7599 284.398 82.1894C284.398 105.619 265.99 122.819 240.981 122.819C215.972 122.819 197.563 105.619 197.563 82.1894ZM261.992 82.1894C261.992 68.7081 252.695 59.8755 240.888 59.8755C229.081 59.8755 219.784 68.7081 219.784 82.1894C219.784 95.6707 229.081 104.503 240.888 104.503C252.695 104.503 261.992 95.6707 261.992 82.1894Z" fill="#1E1E1E"/>
<path d="M295.276 86.466V43.2329H317.31V85.8152C317.31 99.2035 322.888 104.596 332.186 104.596C341.483 104.596 346.875 99.2035 346.875 85.8152V43.2329H368.63V86.466C368.63 109.803 355.056 122.819 331.907 122.819C308.757 122.819 295.183 109.803 295.183 86.466H295.276Z" fill="#1E1E1E"/>
<path d="M110.914 201.941V218.955H48.252V140.856H109.427V157.871H70.1001V171.073H104.778V187.53H70.1001V201.848H110.914V201.941Z" fill="#1E1E1E"/>
<path d="M154.611 198.314H142.525V219.048H120.397V140.949H156.098C177.389 140.949 190.777 152.013 190.777 169.864C190.777 181.393 185.198 189.854 175.529 194.503L192.357 219.048H168.742L154.611 198.314ZM154.797 158.335H142.525V181.207H154.797C163.908 181.207 168.556 176.93 168.556 169.864C168.556 162.798 164.001 158.335 154.797 158.335Z" fill="#1E1E1E"/>
<path d="M239.122 198.314H227.035V219.048H204.908V140.949H240.609C261.899 140.949 275.287 152.013 275.287 169.864C275.287 181.393 269.709 189.854 260.04 194.503L276.868 219.048H253.253L239.122 198.314ZM239.307 158.335H227.035V181.207H239.307C248.419 181.207 253.067 176.93 253.067 169.864C253.067 162.798 248.512 158.335 239.307 158.335Z" fill="#1E1E1E"/>
<path d="M368.63 201.848H295.276V218.955H368.63V201.848Z" fill="#1E1E1E"/>
</g>
</g>
<defs>
<clipPath id="clip0_93_21">
<rect width="414" height="266" fill="white"/>
</clipPath>
<clipPath id="clip1_93_21">
<rect width="414" height="266" fill="white"/>
</clipPath>
</defs>
</svg>
